<svg width="350" height="350" viewBox="0 0 350 350" fill="none" xmlns="http://www.w3.org/2000/svg">
<g clip-path="url(#clip0_67_2)">
<g filter="url(#filter0_i_67_2)">
<rect width="350" height="350" rx="50" fill="#DA5355"/>
</g>
<rect x="8.5" y="8.5" width="333" height="333" rx="41.5" stroke="#3D1112" stroke-width="17"/>
<path d="M226.434 31.6201C232.562 29.8347 238.976 33.3544 240.761 39.4815L248.564 66.258C250.349 72.3851 246.83 78.7995 240.703 80.5849L154.212 105.788C148.085 107.573 141.671 104.053 139.885 97.9264L132.083 71.1499C130.297 65.0228 133.817 58.6084 139.944 56.823L226.434 31.6201Z" fill="white"/>
<path d="M131.667 71.4444C131.667 65.0625 136.84 59.8889 143.222 59.8889H154.778C161.16 59.8889 166.333 65.0625 166.333 71.4444V158.111C166.333 164.493 161.16 169.667 154.778 169.667H143.222C136.84 169.667 131.667 164.493 131.667 158.111V71.4444Z" fill="white"/>
<path d="M166.333 155.222C166.333 172.773 150.813 187 131.667 187C112.521 187 97 172.773 97 155.222C97 137.672 112.521 123.444 131.667 123.444C150.813 123.444 166.333 137.672 166.333 155.222Z" fill="white"/>
<path d="M137.444 71.4444C137.444 68.2535 140.031 65.6667 143.222 65.6667H154.778C157.969 65.6667 160.556 68.2535 160.556 71.4444V152.333C160.556 158.715 155.382 163.889 149 163.889H143.222C140.031 163.889 137.444 161.302 137.444 158.111V71.4444Z" fill="white"/>
<path d="M218.333 42.5556C218.333 36.1736 223.507 31 229.889 31H241.444C247.826 31 253 36.1736 253 42.5556V140.778C253 147.16 247.826 152.333 241.444 152.333H229.889C223.507 152.333 218.333 147.16 218.333 140.778V42.5556Z" fill="white"/>
<path d="M253 137.889C253 155.439 237.479 169.667 218.333 169.667C199.187 169.667 183.667 155.439 183.667 137.889C183.667 120.339 199.187 106.111 218.333 106.111C237.479 106.111 253 120.339 253 137.889Z" fill="white"/>
<path d="M224.111 54.1111C224.111 50.9201 226.698 48.3333 229.889 48.3333H241.444C244.635 48.3333 247.222 50.9201 247.222 54.1111V135C247.222 141.382 242.049 146.556 235.667 146.556H229.889C226.698 146.556 224.111 143.969 224.111 140.778V54.1111Z" fill="white"/>
<path d="M227.312 37.3285C233.439 35.5431 239.853 39.0628 241.639 45.1899L244.618 55.4133C247.296 64.604 242.016 74.2255 232.826 76.9036L145.652 102.306L137.824 75.4411C136.038 69.3139 139.558 62.8996 145.685 61.1141L227.312 37.3285Z" fill="white"/>
<path d="M227.452 196H185.919C185.726 196 185.569 196.155 185.569 196.347V203.082C185.569 203.273 185.726 203.429 185.919 203.429H200.577C200.77 203.429 200.927 203.584 200.927 203.775V247.653C200.927 247.845 201.083 248 201.277 248H212.095C212.288 248 212.445 247.845 212.445 247.653V203.775C212.445 203.584 212.601 203.429 212.795 203.429H227.452C227.646 203.429 227.802 203.273 227.802 203.082V196.347C227.802 196.155 227.646 196 227.452 196Z" fill="white"/>
<path d="M229.901 248H240.719C240.912 248 241.069 247.845 241.069 247.653V196.347C241.069 196.155 240.912 196 240.719 196H229.901C229.708 196 229.551 196.155 229.551 196.347V247.653C229.551 247.845 229.708 248 229.901 248Z" fill="white"/>
<path d="M25.3498 196H59.2042C59.3974 196 59.554 196.155 59.554 196.347V203.082C59.554 203.273 59.3974 203.429 59.2042 203.429H36.8678C36.6746 203.429 36.518 203.584 36.518 203.775V217.939C36.518 218.131 36.6746 218.286 36.8678 218.286H55.3649C55.5581 218.286 55.7147 218.441 55.7147 218.632V225.368C55.7147 225.559 55.5581 225.714 55.3649 225.714H36.8678C36.6746 225.714 36.518 225.869 36.518 226.061V240.225C36.518 240.416 36.6746 240.571 36.8678 240.571H59.2042C59.3974 240.571 59.554 240.727 59.554 240.918V247.653C59.554 247.845 59.3974 248 59.2042 248H25.3498C25.1566 248 25 247.845 25 247.653V196.347C25 196.155 25.1566 196 25.3498 196Z" fill="white"/>
<path d="M105.809 196H139.314C139.604 196 139.839 196.233 139.839 196.52V202.909C139.839 203.196 139.604 203.429 139.314 203.429H117.327C117.038 203.429 116.803 203.661 116.803 203.949V217.766C116.803 218.053 117.038 218.286 117.327 218.286H135.475C135.764 218.286 135.999 218.519 135.999 218.806V225.194C135.999 225.481 135.764 225.714 135.475 225.714H117.327C117.038 225.714 116.803 225.947 116.803 226.234V240.051C116.803 240.339 117.038 240.571 117.327 240.571H139.314C139.604 240.571 139.839 240.804 139.839 241.091V247.48C139.839 247.767 139.604 248 139.314 248H105.809C105.52 248 105.285 247.767 105.285 247.48V196.52C105.285 196.233 105.52 196 105.809 196Z" fill="white"/>
<path d="M243.168 196H277.022C277.216 196 277.372 196.155 277.372 196.347V203.082C277.372 203.273 277.216 203.429 277.022 203.429H254.686C254.493 203.429 254.336 203.584 254.336 203.775V217.939C254.336 218.131 254.493 218.286 254.686 218.286H273.183C273.376 218.286 273.533 218.441 273.533 218.632V225.368C273.533 225.559 273.376 225.714 273.183 225.714H254.686C254.493 225.714 254.336 225.869 254.336 226.061V247.653C254.336 247.845 254.18 248 253.986 248H243.168C242.975 248 242.818 247.845 242.818 247.653V196.347C242.818 196.155 242.975 196 243.168 196Z" fill="white"/>
<path d="M294.229 196H279.665C279.41 196 279.241 196.261 279.347 196.49L294.447 229.36C294.468 229.405 294.479 229.454 294.479 229.504V247.653C294.479 247.845 294.635 248 294.829 248H309.486C309.679 248 309.836 247.845 309.836 247.653V229.504C309.836 229.454 309.847 229.405 309.867 229.36L324.968 196.49C325.074 196.261 324.904 196 324.65 196H313.889C313.758 196 313.638 196.073 313.578 196.189L302.533 217.558C302.393 217.831 301.991 217.802 301.891 217.512L294.56 196.235C294.511 196.094 294.378 196 294.229 196Z" fill="white"/>
<path d="M68.9763 197.733H61.8471C61.7885 197.733 61.7465 197.789 61.7633 197.845L76.3393 246.205C76.3504 246.241 76.3845 246.267 76.4231 246.267H87.264C87.3027 246.267 87.3368 246.241 87.3478 246.205L101.924 197.845C101.941 197.789 101.899 197.733 101.84 197.733H94.7108C94.6711 197.733 94.6363 197.76 94.6262 197.798L83.6892 239.269C83.6791 239.307 83.6444 239.333 83.6046 239.333H80.0826C80.0428 239.333 80.008 239.307 79.998 239.269L69.0609 197.798C69.0508 197.76 69.0161 197.733 68.9763 197.733Z" fill="white"/>
<path d="M152.756 248H141.938C141.744 248 141.588 247.845 141.588 247.653V196.347C141.588 196.155 141.744 196 141.938 196H156.702C156.848 196 156.979 196.09 157.03 196.226L171.625 235.054C171.761 235.416 172.303 235.32 172.303 234.933V196.347C172.303 196.155 172.459 196 172.652 196H183.471C183.664 196 183.821 196.155 183.821 196.347V247.653C183.821 247.845 183.664 248 183.471 248H168.698C168.556 248 168.428 247.915 168.374 247.785L153.779 212.486C153.634 212.134 153.106 212.237 153.106 212.617V247.653C153.106 247.845 152.949 248 152.756 248Z" fill="white"/>
<path d="M59.13 266.712V303.448H76.666L75.642 311H49.722V266.712H59.13ZM94.3805 277.08V311H85.2925V277.08H94.3805ZM89.7725 259.608C91.3938 259.608 92.7165 260.12 93.7405 261.144C94.8072 262.125 95.3405 263.384 95.3405 264.92C95.3405 266.456 94.8072 267.736 93.7405 268.76C92.7165 269.741 91.3938 270.232 89.7725 270.232C88.1512 270.232 86.8285 269.741 85.8045 268.76C84.7805 267.736 84.2685 266.456 84.2685 264.92C84.2685 263.384 84.7805 262.125 85.8045 261.144C86.8285 260.12 88.1512 259.608 89.7725 259.608ZM117.819 276.056C122.598 276.056 126.694 277.421 130.107 280.152L126.651 285.336C123.792 283.544 120.976 282.648 118.203 282.648C116.71 282.648 115.558 282.925 114.747 283.48C113.936 284.035 113.531 284.781 113.531 285.72C113.531 286.403 113.702 286.979 114.043 287.448C114.427 287.917 115.11 288.365 116.091 288.792C117.115 289.219 118.63 289.731 120.635 290.328C124.219 291.309 126.886 292.632 128.635 294.296C130.384 295.917 131.259 298.157 131.259 301.016C131.259 303.277 130.598 305.24 129.275 306.904C127.995 308.568 126.246 309.848 124.027 310.744C121.808 311.597 119.334 312.024 116.603 312.024C113.744 312.024 111.142 311.597 108.795 310.744C106.448 309.848 104.443 308.632 102.779 307.096L107.259 302.104C110.118 304.323 113.147 305.432 116.347 305.432C118.054 305.432 119.398 305.112 120.379 304.472C121.403 303.789 121.915 302.872 121.915 301.72C121.915 300.824 121.723 300.12 121.339 299.608C120.955 299.096 120.251 298.627 119.227 298.2C118.203 297.731 116.603 297.197 114.427 296.6C111.014 295.661 108.475 294.339 106.811 292.632C105.19 290.883 104.379 288.728 104.379 286.168C104.379 284.248 104.934 282.52 106.043 280.984C107.152 279.448 108.71 278.253 110.715 277.4C112.763 276.504 115.131 276.056 117.819 276.056ZM160.668 309.4C159.431 310.253 158.023 310.893 156.444 311.32C154.908 311.789 153.372 312.024 151.836 312.024C148.337 311.981 145.692 310.979 143.9 309.016C142.108 307.053 141.212 304.173 141.212 300.376V283.48H136.156V277.08H141.212V269.656L150.3 268.568V277.08H158.108L157.212 283.48H150.3V300.184C150.3 301.805 150.577 302.979 151.132 303.704C151.687 304.429 152.54 304.792 153.692 304.792C154.844 304.792 156.124 304.408 157.532 303.64L160.668 309.4ZM195.502 293.272C195.502 293.699 195.438 294.872 195.31 296.792H174.126C174.425 299.864 175.257 302.04 176.622 303.32C177.987 304.6 179.843 305.24 182.19 305.24C183.641 305.24 185.006 305.005 186.286 304.536C187.566 304.067 188.953 303.32 190.446 302.296L194.222 307.416C190.425 310.488 186.137 312.024 181.358 312.024C176.025 312.024 171.929 310.424 169.07 307.224C166.211 304.024 164.782 299.693 164.782 294.232C164.782 290.776 165.379 287.683 166.574 284.952C167.811 282.179 169.582 280.003 171.886 278.424C174.233 276.845 177.006 276.056 180.206 276.056C185.027 276.056 188.782 277.571 191.47 280.6C194.158 283.629 195.502 287.853 195.502 293.272ZM186.478 290.712C186.478 285.08 184.451 282.264 180.398 282.264C178.521 282.264 177.049 282.968 175.982 284.376C174.958 285.741 174.339 287.981 174.126 291.096H186.478V290.712ZM224.224 276.056C227.211 276.056 229.536 276.973 231.2 278.808C232.864 280.6 233.696 283.096 233.696 286.296V311H224.608V287.832C224.608 285.997 224.288 284.717 223.648 283.992C223.051 283.224 222.133 282.84 220.896 282.84C219.616 282.84 218.443 283.245 217.376 284.056C216.352 284.824 215.349 285.997 214.368 287.576V311H205.28V277.08H213.152L213.856 281.368C215.264 279.619 216.8 278.296 218.464 277.4C220.171 276.504 222.091 276.056 224.224 276.056ZM274.215 293.272C274.215 293.699 274.151 294.872 274.023 296.792H252.839C253.137 299.864 253.969 302.04 255.335 303.32C256.7 304.6 258.556 305.24 260.903 305.24C262.353 305.24 263.719 305.005 264.999 304.536C266.279 304.067 267.665 303.32 269.159 302.296L272.935 307.416C269.137 310.488 264.849 312.024 260.071 312.024C254.737 312.024 250.641 310.424 247.783 307.224C244.924 304.024 243.495 299.693 243.495 294.232C243.495 290.776 244.092 287.683 245.286 284.952C246.524 282.179 248.295 280.003 250.599 278.424C252.945 276.845 255.719 276.056 258.919 276.056C263.74 276.056 267.495 277.571 270.183 280.6C272.871 283.629 274.215 287.853 274.215 293.272ZM265.191 290.712C265.191 285.08 263.164 282.264 259.111 282.264C257.233 282.264 255.761 282.968 254.695 284.376C253.671 285.741 253.052 287.981 252.839 291.096H265.191V290.712ZM301.529 276.12C302.553 276.12 303.683 276.291 304.921 276.632L303.385 285.4C302.19 285.101 301.187 284.952 300.377 284.952C298.371 284.952 296.814 285.656 295.705 287.064C294.595 288.472 293.721 290.605 293.081 293.464V311H283.993V277.08H291.865L292.697 283.672C293.507 281.283 294.681 279.427 296.217 278.104C297.795 276.781 299.566 276.12 301.529 276.12Z" fill="white"/>
</g>
<defs>
<filter id="filter0_i_67_2" x="0" y="0" width="356" height="364" filterUnits="userSpaceOnUse" color-interpolation-filters="sRGB">
<feFlood flood-opacity="0" result="BackgroundImageFix"/>
<feBlend mode="normal" in="SourceGraphic" in2="BackgroundImageFix" result="shape"/>
<feColorMatrix in="SourceAlpha" type="matrix" values="0 0 0 0 0 0 0 0 0 0 0 0 0 0 0 0 0 0 127 0" result="hardAlpha"/>
<feMorphology radius="9" operator="erode" in="SourceAlpha" result="effect1_innerShadow_67_2"/>
<feOffset dx="6" dy="14"/>
<feGaussianBlur stdDeviation="2.85"/>
<feComposite in2="hardAlpha" operator="arithmetic" k2="-1" k3="1"/>
<feColorMatrix type="matrix" values="0 0 0 0 0 0 0 0 0 0 0 0 0 0 0 0 0 0 0.25 0"/>
<feBlend mode="normal" in2="shape" result="effect1_innerShadow_67_2"/>
</filter>
<clipPath id="clip0_67_2">
<rect width="350" height="350" fill="white"/>
</clipPath>
</defs>
</svg>
